SplineFontDB: 3.0
FontName: KPIWUB+HamburgerHeaven
FullName: KPIWUB+HamburgerHeaven
FamilyName: KPIWUB+HamburgerHeaven
Weight: Book
Copyright: Copyright (c) 2001 Nick Curtis. All Rights Reserved.
Version: 1.0
ItalicAngle: 0
UnderlinePosition: -163
UnderlineWidth: 20
Ascent: 800
Descent: 200
InvalidEm: 0
sfntRevision: 0x00010000
woffMajor: 1
woffMinor: 0
LayerCount: 2
Layer: 0 1 "Back" 1
Layer: 1 1 "Fore" 0
XUID: [1021 946 -1140145727 15825131]
StyleMap: 0x0040
FSType: 0
OS2Version: 1
OS2_WeightWidthSlopeOnly: 0
OS2_UseTypoMetrics: 0
CreationTime: 999957230
ModificationTime: 1587833986
PfmFamily: 81
TTFWeight: 400
TTFWidth: 5
LineGap: 0
VLineGap: 0
Panose: 0 0 4 0 0 0 0 0 0 0
OS2TypoAscent: 942
OS2TypoAOffset: 0
OS2TypoDescent: -252
OS2TypoDOffset: 0
OS2TypoLinegap: 0
OS2WinAscent: 942
OS2WinAOffset: 0
OS2WinDescent: 252
OS2WinDOffset: 0
HheadAscent: 942
HheadAOffset: 0
HheadDescent: -252
HheadDOffset: 0
OS2SubXSize: 700
OS2SubYSize: 650
OS2SubXOff: 0
OS2SubYOff: 143
OS2SupXSize: 700
OS2SupYSize: 650
OS2SupXOff: 0
OS2SupYOff: 453
OS2StrikeYSize: 50
OS2StrikeYPos: 259
OS2Vendor: 'NICK'
OS2CodePages: 00000001.00000000
OS2UnicodeRanges: 00000003.00000000.00000000.00000000
DEI: 91125
ShortTable: maxp 16
  1
  0
  232
  62
  3
  47
  3
  2
  8
  64
  10
  0
  190
  0
  2
  1
EndShort
LangName: 1033 "" "" "Regular" "KPIWUB+-HamburgerHeaven"
GaspTable: 1 65535 2 0
Encoding: UnicodeBmp
UnicodeInterp: none
NameList: AGL For New Fonts
DisplaySize: -48
AntiAlias: 1
FitToEm: 0
WinInfo: 64 16 4
BeginChars: 65539 232

StartChar: .notdef
Encoding: 65536 -1 0
Width: 500
Flags: W
LayerCount: 2
Fore
SplineSet
63 0 m 1,0,-1
 63 750 l 1,1,-1
 438 750 l 1,2,-1
 438 0 l 1,3,-1
 63 0 l 1,0,-1
125 63 m 1,4,-1
 375 63 l 1,5,-1
 375 688 l 1,6,-1
 125 688 l 1,7,-1
 125 63 l 1,4,-1
EndSplineSet
EndChar

StartChar: comma
Encoding: 44 44 15
Width: 155
GlyphClass: 2
Flags: W
LayerCount: 2
Fore
SplineSet
136 42 m 0,0,1
 136 -16 136 -16 97 -49 c 0,2,3
 74 -69 74 -69 37 -70 c 1,4,-1
 37 -30 l 1,5,6
 68 -32 68 -32 78 -4 c 1,7,8
 68 -6 68 -6 59 -4 c 0,9,10
 34 0 34 0 19.5 21.5 c 128,-1,11
 5 43 5 43 9 68 c 0,12,13
 14 93 14 93 35 108 c 128,-1,14
 56 123 56 123 81 118 c 0,15,16
 136 108 136 108 136 42 c 0,0,1
EndSplineSet
EndChar

StartChar: period
Encoding: 46 46 17
Width: 157
GlyphClass: 2
Flags: W
LayerCount: 2
Fore
SplineSet
136 57 m 0,0,1
 136 32 136 32 118 14 c 128,-1,2
 100 -4 100 -4 74 -4 c 0,3,4
 49 -4 49 -4 31 14 c 128,-1,5
 13 32 13 32 13 57 c 0,6,7
 13 83 13 83 30.5 101 c 128,-1,8
 48 119 48 119 74 119 c 256,9,10
 100 119 100 119 118 101 c 128,-1,11
 136 83 136 83 136 57 c 0,0,1
EndSplineSet
EndChar

StartChar: zero
Encoding: 48 48 19
Width: 409
GlyphClass: 2
Flags: W
LayerCount: 2
Fore
SplineSet
415 366 m 2,0,-1
 395 142 l 2,1,2
 390 83 390 83 335 41.5 c 128,-1,3
 280 0 280 0 207 0 c 2,4,-1
 187 0 l 2,5,6
 118 0 118 0 70 36 c 0,7,8
 17 76 17 76 23 142 c 2,9,-1
 43 366 l 2,10,11
 49 432 49 432 109 472 c 0,12,13
 162 508 162 508 231 508 c 2,14,-1
 252 508 l 2,15,16
 320 508 320 508 368 472 c 0,17,18
 421 431 421 431 415 366 c 2,0,-1
281 366 m 2,19,20
 284 401 284 401 269 422 c 0,21,22
 256 440 256 440 235 440 c 0,23,24
 213 440 213 440 197 422 c 0,25,26
 179 401 179 401 176 366 c 2,27,-1
 157 142 l 2,28,29
 154 104 154 104 167.5 83 c 128,-1,30
 181 62 181 62 203 62 c 0,31,32
 224 62 224 62 241.5 83 c 128,-1,33
 259 104 259 104 262 142 c 2,34,-1
 281 366 l 2,19,20
EndSplineSet
EndChar

StartChar: one
Encoding: 49 49 20
Width: 284
GlyphClass: 2
Flags: W
LayerCount: 2
Fore
SplineSet
263 67 m 1,0,-1
 257 0 l 1,1,-1
 13 0 l 1,2,-1
 19 67 l 1,3,-1
 74 67 l 1,4,-1
 107 441 l 1,5,-1
 50 441 l 1,6,-1
 56 508 l 1,7,-1
 246 508 l 1,8,-1
 208 67 l 1,9,-1
 263 67 l 1,0,-1
EndSplineSet
EndChar

StartChar: two
Encoding: 50 50 21
Width: 381
GlyphClass: 2
Flags: W
LayerCount: 2
Fore
SplineSet
387 383 m 0,0,1
 387 301 387 301 313 223 c 2,2,-1
 165 67 l 1,3,-1
 341 67 l 1,4,-1
 335 0 l 1,5,-1
 8 0 l 1,6,-1
 14 66 l 1,7,-1
 224 281 l 2,8,9
 275 333 275 333 266 390 c 256,10,11
 257 447 257 447 195 441 c 0,12,13
 167 438 167 438 144.5 417.5 c 128,-1,14
 122 397 122 397 119 366 c 2,15,-1
 117 344 l 1,16,-1
 50 344 l 1,17,-1
 52 366 l 2,18,19
 58 435 58 435 111 473 c 0,20,21
 158 508 158 508 228 508 c 0,22,23
 296 508 296 508 338 479 c 0,24,25
 387 446 387 446 387 383 c 0,0,1
EndSplineSet
EndChar

StartChar: three
Encoding: 51 51 22
Width: 363
GlyphClass: 2
Flags: W
LayerCount: 2
Fore
SplineSet
378 508 m 1,0,-1
 237 263 l 1,1,2
 285 249 285 249 313 215 c 0,3,4
 344 177 344 177 340 128 c 2,5,-1
 326 -34 l 2,6,7
 321 -92 321 -92 265.5 -134 c 128,-1,8
 210 -176 210 -176 138 -176 c 2,9,-1
 117 -176 l 2,10,11
 58 -176 58 -176 20 -134 c 128,-1,12
 -18 -92 -18 -92 -13 -34 c 1,13,-1
 54 -34 l 1,14,15
 51 -67 51 -67 71 -87 c 2,16,-1
 72 -88 l 2,17,18
 94 -110 94 -110 123 -110 c 0,19,20
 185 -110 185 -110 192 -34 c 2,21,-1
 209 154 l 2,22,23
 214 204 214 204 171 204 c 2,24,-1
 65 204 l 1,25,-1
 203 441 l 1,26,-1
 43 441 l 1,27,-1
 49 508 l 1,28,-1
 378 508 l 1,0,-1
EndSplineSet
EndChar

StartChar: four
Encoding: 52 52 23
Width: 507
GlyphClass: 2
Flags: W
LayerCount: 2
Fore
SplineSet
491 67 m 1,0,-1
 485 0 l 1,1,-1
 408 0 l 1,2,-1
 392 -176 l 1,3,-1
 259 -176 l 1,4,-1
 274 0 l 1,5,-1
 3 0 l 1,6,-1
 308 508 l 1,7,-1
 452 508 l 1,8,-1
 414 67 l 1,9,-1
 491 67 l 1,0,-1
297 259 m 1,10,-1
 181 67 l 1,11,-1
 280 67 l 1,12,-1
 297 259 l 1,10,-1
EndSplineSet
EndChar

StartChar: five
Encoding: 53 53 24
Width: 358
GlyphClass: 2
Flags: W
LayerCount: 2
Fore
SplineSet
343 508 m 1,0,-1
 338 441 l 1,1,-1
 185 441 l 1,2,-1
 171 271 l 1,3,4
 241 271 241 271 290 236 c 0,5,6
 345 196 345 196 339 128 c 2,7,-1
 324 -34 l 2,8,9
 319 -93 319 -93 264 -134.5 c 128,-1,10
 209 -176 209 -176 136 -176 c 2,11,-1
 115 -176 l 2,12,13
 57 -176 57 -176 18.5 -134.5 c 128,-1,14
 -20 -93 -20 -93 -15 -34 c 1,15,-1
 52 -34 l 1,16,17
 50 -65 50 -65 70 -87.5 c 128,-1,18
 90 -110 90 -110 121 -110 c 0,19,20
 185 -110 185 -110 191 -34 c 2,21,-1
 206 145 l 2,22,23
 211 204 211 204 169 204 c 2,24,-1
 30 204 l 1,25,-1
 57 508 l 1,26,-1
 343 508 l 1,0,-1
EndSplineSet
EndChar

StartChar: six
Encoding: 54 54 25
Width: 416
GlyphClass: 2
Flags: W
LayerCount: 2
Fore
SplineSet
416 366 m 2,0,-1
 396 142 l 2,1,2
 391 83 391 83 336 41.5 c 128,-1,3
 281 0 281 0 208 0 c 2,4,-1
 188 0 l 2,5,6
 119 0 119 0 71 36 c 0,7,8
 18 76 18 76 24 142 c 2,9,-1
 55 496 l 2,10,11
 63 585 63 585 141 642 c 0,12,13
 213 695 213 695 305 695 c 2,14,-1
 387 695 l 1,15,-1
 381 628 l 1,16,-1
 299 628 l 2,17,18
 256 628 256 628 226 601.5 c 128,-1,19
 196 575 196 575 193 538 c 2,20,-1
 190 504 l 1,21,22
 207 508 207 508 232 508 c 2,23,-1
 253 508 l 2,24,25
 321 508 321 508 369 472 c 0,26,27
 422 431 422 431 416 366 c 2,0,-1
282 366 m 2,28,29
 285 401 285 401 271.5 421 c 128,-1,30
 258 441 258 441 237 441 c 256,31,32
 216 441 216 441 199 423 c 0,33,34
 181 402 181 402 178 367 c 2,35,-1
 158 142 l 2,36,37
 155 108 155 108 169 89 c 128,-1,38
 183 70 183 70 204 70 c 256,39,40
 225 70 225 70 242.5 89 c 128,-1,41
 260 108 260 108 263 142 c 2,42,-1
 282 366 l 2,28,29
EndSplineSet
EndChar

StartChar: eight
Encoding: 56 56 27
Width: 423
GlyphClass: 2
Flags: W
LayerCount: 2
Fore
SplineSet
416 324 m 2,0,-1
 400 142 l 2,1,2
 395 83 395 83 340 41.5 c 128,-1,3
 285 0 285 0 212 0 c 2,4,-1
 191 0 l 2,5,6
 123 0 123 0 75 36 c 0,7,8
 22 76 22 76 28 142 c 2,9,-1
 44 324 l 2,10,11
 50 393 50 393 113 432 c 1,12,13
 106 437 106 437 94 449 c 0,14,15
 62 483 62 483 62 534 c 0,16,17
 62 600 62 600 111 644 c 0,18,19
 167 695 167 695 262 695 c 0,20,21
 358 695 358 695 405 644 c 0,22,23
 436 610 436 610 436 559 c 0,24,25
 436 493 436 493 388 449 c 0,26,27
 385 446 385 446 366 432 c 1,28,29
 422 392 422 392 416 324 c 2,0,-1
257 629 m 0,30,31
 231 629 231 629 212 594 c 0,32,33
 196 564 196 564 196 536 c 0,34,35
 196 513 196 513 208 491 c 0,36,37
 221 465 221 465 242 465 c 0,38,39
 255 465 255 465 271 479 c 0,40,41
 303 508 303 508 303 557 c 0,42,43
 303 579 303 579 291 602 c 0,44,45
 278 629 278 629 257 629 c 0,30,31
282 324 m 2,46,47
 285 359 285 359 270 380 c 0,48,49
 257 398 257 398 236 398 c 256,50,51
 215 398 215 398 199 380 c 0,52,53
 181 359 181 359 178 324 c 2,54,-1
 162 142 l 2,55,56
 159 107 159 107 173 87.5 c 128,-1,57
 187 68 187 68 208 68 c 0,58,59
 230 68 230 68 247 87.5 c 128,-1,60
 264 107 264 107 267 142 c 2,61,-1
 282 324 l 2,46,47
EndSplineSet
EndChar

StartChar: colon
Encoding: 58 58 29
Width: 157
GlyphClass: 2
Flags: W
LayerCount: 2
Fore
SplineSet
164 300 m 0,0,1
 164 275 164 275 146 257 c 128,-1,2
 128 239 128 239 102 239 c 0,3,4
 77 239 77 239 59 257 c 128,-1,5
 41 275 41 275 41 300 c 0,6,7
 41 326 41 326 58.5 344 c 128,-1,8
 76 362 76 362 102 362 c 256,9,10
 128 362 128 362 146 344 c 128,-1,11
 164 326 164 326 164 300 c 0,0,1
138 57 m 0,12,13
 138 32 138 32 120 14 c 128,-1,14
 102 -4 102 -4 76 -4 c 0,15,16
 51 -4 51 -4 33 14 c 128,-1,17
 15 32 15 32 15 57 c 0,18,19
 15 83 15 83 32.5 101 c 128,-1,20
 50 119 50 119 76 119 c 256,21,22
 102 119 102 119 120 101 c 128,-1,23
 138 83 138 83 138 57 c 0,12,13
EndSplineSet
EndChar

StartChar: question
Encoding: 63 63 34
Width: 389
GlyphClass: 2
Flags: W
LayerCount: 2
Fore
SplineSet
412 566 m 0,0,1
 412 468 412 468 306 392 c 0,2,3
 277 376 277 376 211 335 c 0,4,5
 171 309 171 309 163 301 c 0,6,7
 142 279 142 279 139 245 c 2,8,-1
 131 160 l 1,9,-1
 59 160 l 1,10,-1
 71 288 l 2,11,12
 76 340 76 340 98 374 c 0,13,14
 116 402 116 402 157.5 431.5 c 128,-1,15
 199 461 199 461 216 482 c 0,16,17
 245 518 245 518 249 570 c 0,18,19
 252 610 252 610 228 638 c 128,-1,20
 204 666 204 666 164 666 c 2,21,-1
 67 666 l 1,22,-1
 73 737 l 1,23,-1
 188 737 l 2,24,25
 276 737 276 737 339 696 c 0,26,27
 412 648 412 648 412 566 c 0,0,1
160 65 m 256,28,29
 160 38 160 38 141 19 c 128,-1,30
 122 0 122 0 95 0 c 256,31,32
 68 0 68 0 49 19 c 128,-1,33
 30 38 30 38 30 65 c 256,34,35
 30 92 30 92 49 111 c 128,-1,36
 68 130 68 130 95 130 c 256,37,38
 122 130 122 130 141 111 c 128,-1,39
 160 92 160 92 160 65 c 256,28,29
EndSplineSet
EndChar

StartChar: A
Encoding: 65 65 36
Width: 447
GlyphClass: 2
Flags: W
LayerCount: 2
Fore
SplineSet
449 582 m 2,0,-1
 407 104 l 2,1,2
 404 68 404 68 436 67 c 1,3,-1
 430 0 l 1,4,-1
 377 0 l 2,5,6
 327 0 327 0 299 25 c 0,7,8
 268 53 268 53 273 104 c 2,9,-1
 288 274 l 1,10,-1
 167 274 l 1,11,-1
 143 0 l 1,12,-1
 10 0 l 1,13,-1
 61 582 l 2,14,15
 68 662 68 662 138 703 c 0,16,17
 194 737 194 737 268 737 c 256,18,19
 342 737 342 737 393 703 c 0,20,21
 456 661 456 661 449 582 c 2,0,-1
317 601 m 2,22,23
 320 630 320 630 305 650 c 128,-1,24
 290 670 290 670 262 670 c 0,25,26
 235 670 235 670 217 650 c 128,-1,27
 199 630 199 630 196 601 c 2,28,-1
 173 341 l 1,29,-1
 294 341 l 1,30,-1
 317 601 l 2,22,23
EndSplineSet
EndChar

StartChar: B
Encoding: 66 66 37
Width: 442
GlyphClass: 2
Flags: W
LayerCount: 2
Fore
SplineSet
455 582 m 2,0,-1
 449 513 l 2,1,2
 443 447 443 447 388 398 c 1,3,4
 451 353 451 353 444 271 c 2,5,-1
 434 155 l 2,6,7
 429 91 429 91 379.5 45.5 c 128,-1,8
 330 0 330 0 266 0 c 2,9,-1
 44 0 l 1,10,-1
 102 670 l 1,11,-1
 64 670 l 1,12,-1
 69 737 l 1,13,-1
 314 737 l 2,14,15
 378 737 378 737 419.5 691.5 c 128,-1,16
 461 646 461 646 455 582 c 2,0,-1
323 601 m 2,17,18
 325 629 325 629 307 649.5 c 128,-1,19
 289 670 289 670 261 670 c 2,20,-1
 235 670 l 1,21,-1
 214 425 l 1,22,-1
 248 425 l 1,23,24
 274 429 274 429 293 448.5 c 128,-1,25
 312 468 312 468 314 493 c 2,26,-1
 323 601 l 2,17,18
313 290 m 2,27,28
 315 317 315 317 298 337.5 c 128,-1,29
 281 358 281 358 255 358 c 2,30,-1
 208 358 l 1,31,-1
 182 66 l 1,32,-1
 225 66 l 2,33,34
 253 66 253 66 274.5 86.5 c 128,-1,35
 296 107 296 107 299 135 c 2,36,-1
 313 290 l 2,27,28
EndSplineSet
EndChar

StartChar: C
Encoding: 67 67 38
Width: 377
GlyphClass: 2
Flags: W
LayerCount: 2
Fore
SplineSet
408 737 m 1,0,-1
 402 670 l 1,1,-1
 247 670 l 2,2,3
 229 670 229 670 215 653.5 c 128,-1,4
 201 637 201 637 199 611 c 2,5,-1
 158 142 l 2,6,7
 154 102 154 102 176 81 c 0,8,9
 194 64 194 64 225 66 c 0,10,11
 255 68 255 68 278.5 89 c 128,-1,12
 302 110 302 110 305 142 c 1,13,-1
 372 142 l 1,14,15
 367 84 367 84 321.5 42 c 128,-1,16
 276 0 276 0 217 0 c 0,17,18
 171 0 171 0 153 3 c 0,19,20
 96 12 96 12 60 47 c 0,21,22
 20 86 20 86 25 142 c 2,23,-1
 64 594 l 2,24,25
 70 661 70 661 121 701 c 0,26,27
 169 737 169 737 235 737 c 2,28,-1
 408 737 l 1,0,-1
EndSplineSet
EndChar

StartChar: D
Encoding: 68 68 39
Width: 453
GlyphClass: 2
Flags: W
LayerCount: 2
Fore
SplineSet
474 582 m 2,0,-1
 437 155 l 2,1,2
 431 91 431 91 382 45.5 c 128,-1,3
 333 0 333 0 269 0 c 2,4,-1
 46 0 l 1,5,-1
 105 670 l 1,6,-1
 66 670 l 1,7,-1
 72 737 l 1,8,-1
 333 737 l 2,9,10
 397 737 397 737 438.5 691.5 c 128,-1,11
 480 646 480 646 474 582 c 2,0,-1
343 601 m 2,12,13
 346 629 346 629 327.5 649.5 c 128,-1,14
 309 670 309 670 280 670 c 2,15,-1
 238 670 l 1,16,-1
 185 66 l 1,17,-1
 227 66 l 2,18,19
 255 66 255 66 277 86.5 c 128,-1,20
 299 107 299 107 302 135 c 2,21,-1
 343 601 l 2,12,13
EndSplineSet
EndChar

StartChar: E
Encoding: 69 69 40
Width: 366
GlyphClass: 2
Flags: W
LayerCount: 2
Fore
SplineSet
408 737 m 1,0,-1
 402 670 l 1,1,-1
 267 670 l 2,2,3
 238 670 238 670 216 649.5 c 128,-1,4
 194 629 194 629 192 601 c 2,5,-1
 175 402 l 1,6,-1
 342 402 l 1,7,-1
 337 335 l 1,8,-1
 169 335 l 1,9,-1
 151 135 l 2,10,11
 148 107 148 107 166.5 86.5 c 128,-1,12
 185 66 185 66 214 66 c 2,13,-1
 349 66 l 1,14,-1
 343 0 l 1,15,-1
 161 0 l 2,16,17
 97 0 97 0 55.5 45.5 c 128,-1,18
 14 91 14 91 20 155 c 2,19,-1
 57 582 l 2,20,21
 63 646 63 646 112.5 691.5 c 128,-1,22
 162 737 162 737 226 737 c 2,23,-1
 408 737 l 1,0,-1
EndSplineSet
EndChar

StartChar: F
Encoding: 70 70 41
Width: 381
GlyphClass: 2
Flags: W
LayerCount: 2
Fore
SplineSet
424 737 m 1,0,-1
 419 670 l 1,1,-1
 208 670 l 1,2,-1
 184 402 l 1,3,-1
 330 402 l 1,4,-1
 324 335 l 1,5,-1
 178 335 l 1,6,-1
 149 0 l 1,7,-1
 15 0 l 1,8,-1
 80 737 l 1,9,-1
 424 737 l 1,0,-1
EndSplineSet
EndChar

StartChar: G
Encoding: 71 71 42
Width: 453
GlyphClass: 2
Flags: W
LayerCount: 2
Fore
SplineSet
490 737 m 1,0,-1
 484 670 l 1,1,-1
 246 670 l 2,2,3
 228 670 228 670 214.5 653.5 c 128,-1,4
 201 637 201 637 199 611 c 2,5,-1
 158 142 l 2,6,7
 154 102 154 102 175 81 c 0,8,9
 194 64 194 64 224 66 c 256,10,11
 254 68 254 68 277.5 89 c 128,-1,12
 301 110 301 110 304 142 c 2,13,-1
 327 402 l 1,14,-1
 461 402 l 1,15,-1
 419 -76 l 2,16,17
 414 -135 414 -135 358.5 -177 c 128,-1,18
 303 -219 303 -219 231 -219 c 2,19,-1
 96 -219 l 1,20,-1
 102 -152 l 1,21,-1
 211 -152 l 2,22,23
 240 -152 240 -152 261 -130 c 128,-1,24
 282 -108 282 -108 285 -76 c 2,25,-1
 294 22 l 1,26,27
 258 0 258 0 216 0 c 0,28,29
 170 0 170 0 152 3 c 0,30,31
 95 12 95 12 59 47 c 0,32,33
 19 86 19 86 24 142 c 2,34,-1
 63 594 l 2,35,36
 69 661 69 661 121 701 c 0,37,38
 168 737 168 737 235 737 c 2,39,-1
 490 737 l 1,0,-1
EndSplineSet
EndChar

StartChar: H
Encoding: 72 72 43
Width: 489
GlyphClass: 2
Flags: W
LayerCount: 2
Fore
SplineSet
498 737 m 1,0,-1
 443 104 l 2,1,2
 440 67 440 67 476 67 c 1,3,-1
 470 0 l 1,4,-1
 413 0 l 2,5,6
 364 0 364 0 335 26.5 c 128,-1,7
 306 53 306 53 310 104 c 2,8,-1
 330 335 l 1,9,-1
 203 335 l 1,10,-1
 174 0 l 1,11,-1
 40 0 l 1,12,-1
 99 670 l 1,13,-1
 61 670 l 1,14,-1
 67 737 l 1,15,-1
 238 737 l 1,16,-1
 209 402 l 1,17,-1
 335 402 l 1,18,-1
 364 737 l 1,19,-1
 498 737 l 1,0,-1
EndSplineSet
EndChar

StartChar: I
Encoding: 73 73 44
Width: 164
GlyphClass: 2
Flags: W
LayerCount: 2
Fore
SplineSet
205 737 m 1,0,-1
 141 0 l 1,1,-1
 7 0 l 1,2,-1
 71 737 l 1,3,-1
 205 737 l 1,0,-1
EndSplineSet
EndChar

StartChar: J
Encoding: 74 74 45
Width: 197
GlyphClass: 2
Flags: W
LayerCount: 2
Fore
SplineSet
220 737 m 1,0,-1
 149 -76 l 2,1,2
 144 -137 144 -137 96 -178 c 128,-1,3
 48 -219 48 -219 -23 -219 c 2,4,-1
 -174 -219 l 1,5,-1
 -168 -152 l 1,6,-1
 -59 -152 l 2,7,8
 8 -152 8 -152 15 -76 c 2,9,-1
 86 737 l 1,10,-1
 220 737 l 1,0,-1
EndSplineSet
EndChar

StartChar: K
Encoding: 75 75 46
Width: 472
GlyphClass: 2
Flags: W
LayerCount: 2
Fore
SplineSet
497 737 m 1,0,-1
 292 423 l 1,1,-1
 339 423 l 2,2,3
 384 423 384 423 412 402 c 0,4,5
 444 379 444 379 444 338 c 0,6,7
 444 329 444 329 442 319 c 2,8,-1
 441 313 l 1,9,-1
 442 313 l 1,10,-1
 424 104 l 2,11,12
 421 68 421 68 454 67 c 1,13,-1
 448 0 l 1,14,-1
 393 0 l 2,15,16
 344 0 344 0 315 26.5 c 128,-1,17
 286 53 286 53 290 104 c 2,18,-1
 308 319 l 2,19,20
 311 356 311 356 274 356 c 2,21,-1
 203 356 l 1,22,-1
 172 0 l 1,23,-1
 38 0 l 1,24,-1
 97 670 l 1,25,-1
 58 670 l 1,26,-1
 64 737 l 1,27,-1
 236 737 l 1,28,-1
 212 456 l 1,29,-1
 396 737 l 1,30,-1
 497 737 l 1,0,-1
EndSplineSet
EndChar

StartChar: L
Encoding: 76 76 47
Width: 389
GlyphClass: 2
Flags: W
LayerCount: 2
Fore
SplineSet
372 67 m 1,0,-1
 367 0 l 1,1,-1
 157 0 l 2,2,3
 108 0 108 0 79 26.5 c 128,-1,4
 50 53 50 53 54 104 c 2,5,-1
 103 670 l 1,6,-1
 66 670 l 1,7,-1
 72 737 l 1,8,-1
 242 737 l 1,9,-1
 188 104 l 2,10,11
 185 67 185 67 222 67 c 2,12,-1
 372 67 l 1,0,-1
EndSplineSet
EndChar

StartChar: M
Encoding: 77 77 48
Width: 737
GlyphClass: 2
Flags: W
LayerCount: 2
Fore
SplineSet
731 579 m 2,0,-1
 691 104 l 2,1,2
 688 68 688 68 721 67 c 1,3,-1
 715 0 l 1,4,-1
 660 0 l 2,5,6
 611 0 611 0 582 26 c 128,-1,7
 553 52 553 52 557 104 c 2,8,-1
 598 587 l 2,9,10
 605 665 605 665 547 665 c 2,11,-1
 489 665 l 1,12,-1
 430 0 l 1,13,-1
 296 0 l 1,14,-1
 348 587 l 2,15,16
 355 665 355 665 295 665 c 2,17,-1
 237 665 l 1,18,-1
 179 0 l 1,19,-1
 45 0 l 1,20,-1
 104 670 l 1,21,-1
 65 670 l 1,22,-1
 71 737 l 1,23,-1
 553 737 l 2,24,25
 632 737 632 737 682 698 c 0,26,27
 737 655 737 655 731 579 c 2,0,-1
EndSplineSet
EndChar

StartChar: N
Encoding: 78 78 49
Width: 491
GlyphClass: 2
Flags: W
LayerCount: 2
Fore
SplineSet
484 579 m 2,0,-1
 443 104 l 2,1,2
 440 68 440 68 472 67 c 1,3,-1
 466 0 l 1,4,-1
 412 0 l 2,5,6
 363 0 363 0 335 25 c 0,7,8
 303 53 303 53 308 104 c 2,9,-1
 350 579 l 2,10,11
 354 620 354 620 338.5 643 c 128,-1,12
 323 666 323 666 299 666 c 2,13,-1
 241 665 l 1,14,-1
 183 0 l 1,15,-1
 49 0 l 1,16,-1
 107 670 l 1,17,-1
 67 670 l 1,18,-1
 73 737 l 1,19,-1
 305 737 l 2,20,21
 385 737 385 737 435 698 c 0,22,23
 491 655 491 655 484 579 c 2,0,-1
EndSplineSet
EndChar

StartChar: O
Encoding: 79 79 50
Width: 448
GlyphClass: 2
Flags: W
LayerCount: 2
Fore
SplineSet
473 582 m 2,0,-1
 435 155 l 2,1,2
 429 89 429 89 378 46 c 0,3,4
 324 0 324 0 242 0 c 2,5,-1
 198 0 l 2,6,7
 117 0 117 0 71 46 c 0,8,9
 26 89 26 89 32 155 c 2,10,-1
 69 582 l 2,11,12
 75 648 75 648 128.5 692.5 c 128,-1,13
 182 737 182 737 263 737 c 2,14,-1
 306 737 l 2,15,16
 387 737 387 737 433 692.5 c 128,-1,17
 479 648 479 648 473 582 c 2,0,-1
341 601 m 2,18,19
 343 629 343 629 325 649.5 c 128,-1,20
 307 670 307 670 279 670 c 256,21,22
 251 670 251 670 229 649.5 c 128,-1,23
 207 629 207 629 204 601 c 2,24,-1
 163 135 l 2,25,26
 160 107 160 107 178.5 86.5 c 128,-1,27
 197 66 197 66 226 66 c 256,28,29
 255 66 255 66 277 86 c 128,-1,30
 299 106 299 106 301 135 c 2,31,-1
 341 601 l 2,18,19
EndSplineSet
EndChar

StartChar: P
Encoding: 80 80 51
Width: 450
GlyphClass: 2
Flags: W
LayerCount: 2
Fore
SplineSet
470 582 m 2,0,-1
 460 462 l 2,1,2
 455 398 455 398 405.5 353 c 128,-1,3
 356 308 356 308 292 308 c 2,4,-1
 202 308 l 1,5,-1
 176 0 l 1,6,-1
 42 0 l 1,7,-1
 101 670 l 1,8,-1
 62 670 l 1,9,-1
 68 737 l 1,10,-1
 329 737 l 2,11,12
 393 737 393 737 434 691.5 c 128,-1,13
 475 646 475 646 470 582 c 2,0,-1
339 601 m 2,14,15
 342 629 342 629 323.5 649.5 c 128,-1,16
 305 670 305 670 276 670 c 2,17,-1
 234 670 l 1,18,-1
 208 374 l 1,19,-1
 250 374 l 2,20,21
 278 374 278 374 300 394.5 c 128,-1,22
 322 415 322 415 325 443 c 2,23,-1
 339 601 l 2,14,15
EndSplineSet
EndChar

StartChar: Q
Encoding: 81 81 52
Width: 450
GlyphClass: 2
Flags: W
LayerCount: 2
Fore
SplineSet
469 582 m 2,0,-1
 431 155 l 2,1,2
 426 98 426 98 385.5 56 c 128,-1,3
 345 14 345 14 280 3 c 1,4,-1
 274 -56 l 2,5,6
 271 -84 271 -84 289.5 -104.5 c 128,-1,7
 308 -125 308 -125 337 -125 c 2,8,-1
 354 -125 l 1,9,-1
 348 -191 l 1,10,-1
 284 -191 l 2,11,12
 220 -191 220 -191 178.5 -146 c 128,-1,13
 137 -101 137 -101 143 -37 c 2,14,-1
 147 5 l 1,15,16
 87 18 87 18 55 59 c 128,-1,17
 23 100 23 100 28 155 c 2,18,-1
 65 582 l 2,19,20
 71 648 71 648 124.5 692.5 c 128,-1,21
 178 737 178 737 259 737 c 2,22,-1
 302 737 l 2,23,24
 383 737 383 737 429 692.5 c 128,-1,25
 475 648 475 648 469 582 c 2,0,-1
337 601 m 2,26,27
 339 629 339 629 321 649.5 c 128,-1,28
 303 670 303 670 275 670 c 256,29,30
 247 670 247 670 225 649.5 c 128,-1,31
 203 629 203 629 200 601 c 2,32,-1
 159 135 l 2,33,34
 156 107 156 107 174.5 86.5 c 128,-1,35
 193 66 193 66 222 66 c 256,36,37
 251 66 251 66 273 86 c 128,-1,38
 295 106 295 106 297 135 c 2,39,-1
 337 601 l 2,26,27
EndSplineSet
EndChar

StartChar: R
Encoding: 82 82 53
Width: 483
GlyphClass: 2
Flags: W
LayerCount: 2
Fore
SplineSet
417 402 m 1,0,1
 449 378 449 378 449 330 c 2,2,3
 449 330 449 330 448 313 c 2,4,-1
 430 104 l 2,5,6
 430 100 430 100 430 96 c 0,7,8
 430 67 430 67 463 67 c 1,9,-1
 457 0 l 1,10,-1
 400 0 l 2,11,12
 296 0 296 0 296 92 c 0,13,14
 296 98 296 98 297 104 c 2,15,-1
 314 311 l 2,16,17
 314 316 314 316 314 320 c 0,18,19
 314 356 314 356 281 356 c 2,20,-1
 209 356 l 1,21,-1
 178 0 l 1,22,-1
 45 0 l 1,23,-1
 103 670 l 1,24,-1
 64 670 l 1,25,-1
 70 736 l 1,26,-1
 311 736 l 2,27,28
 380 736 380 736 424 707 c 0,29,30
 475 673 475 673 475 608 c 0,31,32
 475 454 475 454 417 402 c 1,0,1
342 623 m 2,33,34
 343 643 343 643 330 656.5 c 128,-1,35
 317 670 317 670 296 670 c 2,36,-1
 237 670 l 1,37,-1
 215 423 l 1,38,-1
 283 423 l 2,39,40
 326 423 326 423 330 473 c 2,41,-1
 342 623 l 2,33,34
EndSplineSet
EndChar

StartChar: S
Encoding: 83 83 54
Width: 398
GlyphClass: 2
Flags: W
LayerCount: 2
Fore
SplineSet
371 737 m 1,0,-1
 365 670 l 1,1,-1
 301 670 l 2,2,3
 251 670 251 670 231 657 c 0,4,5
 193 632 193 632 193 591 c 0,6,7
 193 552 193 552 223 513 c 2,8,-1
 346 353 l 2,9,10
 391 295 391 295 391 218 c 0,11,12
 391 115 391 115 312 53 c 0,13,14
 245 0 245 0 140 0 c 2,15,-1
 41 0 l 1,16,-1
 48 67 l 1,17,-1
 134 67 l 2,18,19
 193 67 193 67 225 94.5 c 128,-1,20
 257 122 257 122 257 165 c 0,21,22
 257 210 257 210 224 255 c 2,23,-1
 86 446 l 2,24,25
 57 486 57 486 57 538 c 0,26,27
 57 630 57 630 131 688 c 0,28,29
 193 737 193 737 283 737 c 2,30,-1
 371 737 l 1,0,-1
EndSplineSet
EndChar

StartChar: T
Encoding: 84 84 55
Width: 352
GlyphClass: 2
Flags: W
LayerCount: 2
Fore
SplineSet
395 736 m 1,0,-1
 389 670 l 1,1,-1
 293 670 l 1,2,-1
 235 0 l 1,3,-1
 101 0 l 1,4,-1
 160 670 l 1,5,-1
 64 670 l 1,6,-1
 70 736 l 1,7,-1
 395 736 l 1,0,-1
EndSplineSet
EndChar

StartChar: U
Encoding: 85 85 56
Width: 502
GlyphClass: 2
Flags: W
LayerCount: 2
Fore
SplineSet
494 737 m 1,0,-1
 440 112 l 2,1,2
 440 107 440 107 440 102 c 0,3,4
 440 67 440 67 482 67 c 1,5,-1
 476 0 l 1,6,-1
 417 0 l 2,7,8
 362 0 362 0 331 29 c 1,9,10
 278 0 278 0 216 0 c 0,11,12
 151 0 151 0 105 32 c 0,13,14
 53 68 53 68 53 131 c 0,15,16
 53 137 53 137 53 142 c 2,17,-1
 99 670 l 1,18,-1
 63 670 l 1,19,-1
 69 736 l 1,20,-1
 238 736 l 1,21,-1
 187 150 l 2,22,23
 187 144 187 144 187 139 c 0,24,25
 187 72 187 72 242 72 c 0,26,27
 271 72 271 72 290 98 c 0,28,29
 307 121 307 121 309 150 c 2,30,-1
 359 737 l 1,31,-1
 494 737 l 1,0,-1
EndSplineSet
EndChar

StartChar: V
Encoding: 86 86 57
Width: 445
GlyphClass: 2
Flags: W
LayerCount: 2
Fore
SplineSet
479 737 m 1,0,-1
 436 242 l 2,1,2
 427 143 427 143 351.5 71.5 c 128,-1,3
 276 0 276 0 177 -1 c 0,4,5
 132 -1 132 -1 43 -1 c 1,6,-1
 101 670 l 1,7,-1
 66 670 l 1,8,-1
 72 737 l 1,9,-1
 242 737 l 1,10,-1
 183 66 l 1,11,12
 225 67 225 67 258 96 c 128,-1,13
 291 125 291 125 295 166 c 2,14,-1
 345 737 l 1,15,-1
 479 737 l 1,0,-1
EndSplineSet
EndChar

StartChar: W
Encoding: 87 87 58
Width: 755
GlyphClass: 2
Flags: W
LayerCount: 2
Fore
SplineSet
742 737 m 1,0,-1
 684 67 l 1,1,-1
 737 67 l 1,2,-1
 732 0 l 1,3,-1
 234 0 l 2,4,5
 155 0 155 0 105 39 c 0,6,7
 49 82 49 82 56 158 c 2,8,-1
 100 670 l 1,9,-1
 62 670 l 1,10,-1
 68 737 l 1,11,-1
 240 737 l 1,12,-1
 189 149 l 2,13,14
 182 72 182 72 241 72 c 2,15,-1
 299 72 l 1,16,-1
 357 737 l 1,17,-1
 491 737 l 1,18,-1
 440 149 l 2,19,20
 433 72 433 72 492 72 c 2,21,-1
 550 72 l 1,22,-1
 608 737 l 1,23,-1
 742 737 l 1,0,-1
EndSplineSet
EndChar

StartChar: X
Encoding: 88 88 59
Width: 498
GlyphClass: 2
Flags: W
LayerCount: 2
Fore
SplineSet
512 737 m 1,0,-1
 491 498 l 2,1,2
 484 418 484 418 413 374 c 1,3,4
 476 330 476 330 469 250 c 2,5,-1
 456 104 l 2,6,7
 453 68 453 68 483 67 c 1,8,-1
 477 0 l 1,9,-1
 427 0 l 2,10,11
 377 0 377 0 349 25 c 0,12,13
 318 53 318 53 323 104 c 2,14,-1
 338 269 l 2,15,16
 341 297 341 297 322.5 317.5 c 128,-1,17
 304 338 304 338 275 338 c 0,18,19
 247 338 247 338 225 317.5 c 128,-1,20
 203 297 203 297 200 269 c 2,21,-1
 176 0 l 1,22,-1
 43 0 l 1,23,-1
 65 250 l 2,24,25
 72 330 72 330 143 374 c 1,26,27
 80 418 80 418 87 498 c 2,28,-1
 102 670 l 1,29,-1
 63 670 l 1,30,-1
 69 737 l 1,31,-1
 241 737 l 1,32,-1
 218 478 l 2,33,34
 215 450 215 450 233.5 430 c 128,-1,35
 252 410 252 410 281 410 c 256,36,37
 310 410 310 410 332 430 c 128,-1,38
 354 450 354 450 356 478 c 2,39,-1
 378 737 l 1,40,-1
 512 737 l 1,0,-1
EndSplineSet
EndChar

StartChar: Y
Encoding: 89 89 60
Width: 435
GlyphClass: 2
Flags: W
LayerCount: 2
Fore
SplineSet
431 727 m 1,0,-1
 380 143 l 2,1,2
 375 84 375 84 319.5 42 c 128,-1,3
 264 0 264 0 191 0 c 2,4,-1
 56 0 l 1,5,-1
 62 67 l 1,6,-1
 189 67 l 2,7,8
 239 67 239 67 244 126 c 2,9,-1
 252 219 l 1,10,-1
 208 219 l 2,11,12
 130 219 130 219 81 257 c 0,13,14
 27 299 27 299 33 373 c 2,15,-1
 58 660 l 1,16,-1
 22 660 l 1,17,-1
 28 727 l 1,18,-1
 198 727 l 1,19,-1
 165 348 l 2,20,21
 160 286 160 286 214 286 c 2,22,-1
 258 286 l 1,23,-1
 297 727 l 1,24,-1
 431 727 l 1,0,-1
EndSplineSet
EndChar

StartChar: Z
Encoding: 90 90 61
Width: 461
GlyphClass: 2
Flags: W
LayerCount: 2
Fore
SplineSet
492 736 m 1,0,-1
 176 67 l 1,1,-1
 438 67 l 1,2,-1
 432 0 l 1,3,-1
 0 0 l 1,4,-1
 315 670 l 1,5,-1
 113 670 l 1,6,-1
 119 736 l 1,7,-1
 492 736 l 1,0,-1
EndSplineSet
EndChar

StartChar: a
Encoding: 97 97 68
Width: 478
GlyphClass: 2
Flags: W
LayerCount: 2
Fore
SplineSet
465 67 m 1,0,-1
 459 0 l 1,1,-1
 412 0 l 2,2,3
 342 0 342 0 310 41 c 1,4,5
 266 0 266 0 207 0 c 2,6,-1
 186 0 l 2,7,8
 118 0 118 0 70 36 c 0,9,10
 17 76 17 76 23 142 c 2,11,-1
 42 366 l 2,12,13
 48 431 48 431 108 472 c 0,14,15
 162 508 162 508 230 508 c 2,16,-1
 461 508 l 1,17,-1
 427 112 l 2,18,19
 423 69 423 69 465 67 c 1,0,-1
321 441 m 1,20,-1
 225 441 l 2,21,22
 182 441 182 441 178 391 c 2,23,-1
 156 134 l 2,24,25
 150 67 150 67 213 67 c 0,26,27
 244 67 244 67 268 89 c 128,-1,28
 292 111 292 111 295 142 c 2,29,-1
 321 441 l 1,20,-1
EndSplineSet
EndChar

StartChar: b
Encoding: 98 98 69
Width: 483
GlyphClass: 2
Flags: W
LayerCount: 2
Fore
SplineSet
487 366 m 2,0,-1
 467 142 l 2,1,2
 461 72 461 72 396 33 c 0,3,4
 342 0 342 0 269 0 c 0,5,6
 200 0 200 0 163 41 c 1,7,8
 122 0 122 0 54 0 c 2,9,-1
 5 0 l 1,10,-1
 11 67 l 1,11,12
 54 69 54 69 58 112 c 2,13,-1
 113 737 l 1,14,-1
 298 737 l 1,15,-1
 293 670 l 1,16,-1
 242 670 l 1,17,-1
 228 508 l 1,18,-1
 324 508 l 2,19,20
 392 508 392 508 440 472 c 0,21,22
 493 431 493 431 487 366 c 2,0,-1
356 391 m 2,23,24
 360 441 360 441 318 441 c 2,25,-1
 222 441 l 1,26,-1
 195 142 l 2,27,28
 192 111 192 111 212.5 89 c 128,-1,29
 233 67 233 67 264 67 c 0,30,31
 327 67 327 67 333 134 c 2,32,-1
 356 391 l 2,23,24
EndSplineSet
EndChar

StartChar: c
Encoding: 99 99 70
Width: 365
GlyphClass: 2
Flags: W
LayerCount: 2
Fore
SplineSet
368 508 m 1,0,-1
 362 441 l 1,1,-1
 220 441 l 2,2,3
 201 441 201 441 188 422.5 c 128,-1,4
 175 404 175 404 173 383 c 2,5,-1
 150 120 l 2,6,7
 149 98 149 98 167 82.5 c 128,-1,8
 185 67 185 67 208 67 c 0,9,10
 239 67 239 67 263 89 c 128,-1,11
 287 111 287 111 290 142 c 1,12,-1
 357 142 l 1,13,14
 352 84 352 84 306.5 42 c 128,-1,15
 261 0 261 0 202 0 c 2,16,-1
 181 0 l 2,17,18
 116 0 116 0 70 32 c 0,19,20
 18 68 18 68 18 131 c 0,21,22
 18 137 18 137 18 142 c 2,23,-1
 38 366 l 2,24,25
 44 431 44 431 103 472 c 0,26,27
 157 508 157 508 226 508 c 2,28,-1
 368 508 l 1,0,-1
EndSplineSet
EndChar

StartChar: d
Encoding: 100 100 71
Width: 484
GlyphClass: 2
Flags: W
LayerCount: 2
Fore
SplineSet
481 737 m 1,0,-1
 426 112 l 2,1,2
 422 67 422 67 468 67 c 1,3,-1
 462 0 l 1,4,-1
 412 0 l 2,5,6
 343 0 343 0 309 41 c 1,7,8
 265 0 265 0 196 0 c 0,9,10
 123 0 123 0 74 33 c 0,11,12
 17 71 17 71 23 142 c 2,13,-1
 42 366 l 2,14,15
 48 431 48 431 108 472 c 0,16,17
 162 508 162 508 230 508 c 2,18,-1
 326 508 l 1,19,-1
 341 670 l 1,20,-1
 303 670 l 1,21,-1
 309 737 l 1,22,-1
 481 737 l 1,0,-1
321 441 m 1,23,-1
 224 441 l 2,24,25
 182 441 182 441 178 391 c 2,26,-1
 156 134 l 2,27,28
 150 67 150 67 212 67 c 0,29,30
 243 67 243 67 267 89 c 128,-1,31
 291 111 291 111 294 142 c 2,32,-1
 321 441 l 1,23,-1
EndSplineSet
EndChar

StartChar: e
Encoding: 101 101 72
Width: 369
GlyphClass: 2
Flags: W
LayerCount: 2
Fore
SplineSet
377 366 m 1,0,-1
 310 366 l 1,1,2
 313 397 313 397 294 417.5 c 128,-1,3
 275 438 275 438 248 441 c 0,4,5
 211 444 211 444 189.5 416 c 128,-1,6
 168 388 168 388 168 351 c 0,7,8
 168 287 168 287 215 287 c 2,9,-1
 339 287 l 1,10,-1
 333 221 l 1,11,-1
 210 221 l 2,12,13
 183 221 183 221 166.5 195.5 c 128,-1,14
 150 170 150 170 150 137 c 0,15,16
 150 106 150 106 166.5 85 c 128,-1,17
 183 64 183 64 215 66 c 0,18,19
 242 68 242 68 264.5 88.5 c 128,-1,20
 287 109 287 109 290 142 c 1,21,-1
 357 142 l 1,22,23
 351 74 351 74 299 35 c 0,24,25
 251 0 251 0 182 0 c 0,26,27
 116 0 116 0 67 40 c 0,28,29
 15 81 15 81 19 142 c 0,30,31
 24 212 24 212 88 254 c 1,32,33
 33 306 33 306 38 366 c 0,34,35
 44 431 44 431 104 471 c 0,36,37
 158 508 158 508 226 508 c 0,38,39
 296 508 296 508 337 473 c 0,40,41
 383 435 383 435 377 366 c 1,0,-1
EndSplineSet
EndChar

StartChar: f
Encoding: 102 102 73
Width: 343
GlyphClass: 2
Flags: W
LayerCount: 2
Fore
SplineSet
384 737 m 1,0,-1
 378 670 l 1,1,-1
 302 670 l 2,2,3
 285 670 285 670 271 653 c 128,-1,4
 257 636 257 636 255 611 c 2,5,-1
 246 508 l 1,6,-1
 319 508 l 1,7,-1
 313 441 l 1,8,-1
 240 441 l 1,9,-1
 195 -76 l 2,10,11
 190 -136 190 -136 138.5 -177.5 c 128,-1,12
 87 -219 87 -219 15 -219 c 2,13,-1
 -61 -219 l 1,14,-1
 -55 -152 l 1,15,-1
 13 -152 l 2,16,17
 55 -152 55 -152 60 -93 c 2,18,-1
 106 441 l 1,19,-1
 43 441 l 1,20,-1
 49 508 l 1,21,-1
 112 508 l 1,22,-1
 120 594 l 2,23,24
 126 661 126 661 177 701 c 0,25,26
 224 737 224 737 291 737 c 2,27,-1
 384 737 l 1,0,-1
EndSplineSet
EndChar

StartChar: g
Encoding: 103 103 74
Width: 417
GlyphClass: 2
Flags: W
LayerCount: 2
Fore
SplineSet
434 508 m 1,0,-1
 428 441 l 1,1,-1
 372 441 l 1,2,3
 383 420 383 420 380 391 c 2,4,-1
 365 219 l 2,5,6
 360 163 360 163 307 130 c 1,7,8
 387 76 387 76 378 -17 c 1,9,-1
 421 -17 l 1,10,-1
 415 -84 l 1,11,-1
 372 -84 l 1,12,-1
 369 -122 l 2,13,14
 365 -177 365 -177 312 -211 c 0,15,16
 266 -240 266 -240 208 -240 c 2,17,-1
 142 -240 l 2,18,19
 83 -240 83 -240 43 -211 c 0,20,21
 -4 -178 -4 -178 1 -122 c 2,22,-1
 10 -17 l 1,23,-1
 245 -17 l 1,24,25
 248 20 248 20 227 58 c 0,26,27
 204 101 204 101 169 101 c 0,28,29
 112 101 112 101 72 131 c 0,30,31
 26 164 26 164 31 219 c 2,32,-1
 46 391 l 2,33,34
 51 446 51 446 103 479 c 0,35,36
 149 508 149 508 207 508 c 2,37,-1
 434 508 l 1,0,-1
247 391 m 2,38,39
 249 416 249 416 240 429 c 128,-1,40
 231 442 231 442 218 442 c 0,41,42
 184 441 184 441 180 391 c 2,43,-1
 165 219 l 2,44,45
 161 168 161 168 194 167 c 0,46,47
 226 166 226 166 231 219 c 2,48,-1
 247 391 l 2,38,39
239 -84 m 1,49,-1
 138 -84 l 1,50,-1
 135 -122 l 2,51,52
 133 -149 133 -149 146.5 -164.5 c 128,-1,53
 160 -180 160 -180 180 -180 c 256,54,55
 200 -180 200 -180 216 -164.5 c 128,-1,56
 232 -149 232 -149 235 -122 c 2,57,-1
 239 -84 l 1,49,-1
EndSplineSet
EndChar

StartChar: h
Encoding: 104 104 75
Width: 480
GlyphClass: 2
Flags: W
LayerCount: 2
Fore
SplineSet
463 65 m 1,0,-1
 457 -2 l 1,1,-1
 405 -2 l 2,2,3
 356 -2 356 -2 326 23 c 0,4,5
 292 51 292 51 296 100 c 2,6,-1
 318 362 l 2,7,8
 324 438 324 438 270 438 c 2,9,-1
 216 438 l 1,10,-1
 178 0 l 1,11,-1
 44 0 l 1,12,-1
 103 670 l 1,13,-1
 64 670 l 1,14,-1
 70 737 l 1,15,-1
 242 737 l 1,16,-1
 222 508 l 1,17,-1
 276 508 l 2,18,19
 356 508 356 508 403 473 c 0,20,21
 458 433 458 433 451 354 c 2,22,-1
 430 100 l 2,23,24
 428 78 428 78 437 70 c 0,25,26
 443 65 443 65 463 65 c 1,0,-1
EndSplineSet
EndChar

StartChar: i
Encoding: 105 105 76
Width: 241
GlyphClass: 2
Flags: W
LayerCount: 2
Fore
SplineSet
232 669 m 256,0,1
 232 641 232 641 212 620.5 c 128,-1,2
 192 600 192 600 164 600 c 256,3,4
 136 600 136 600 116 620 c 128,-1,5
 96 640 96 640 96 669 c 0,6,7
 96 697 96 697 116 717 c 128,-1,8
 136 737 136 737 164 737 c 256,9,10
 192 737 192 737 212 717 c 128,-1,11
 232 697 232 697 232 669 c 256,0,1
226 67 m 1,12,-1
 220 0 l 1,13,-1
 200 0 l 2,14,15
 127 0 127 0 87 33.5 c 128,-1,16
 47 67 47 67 52 125 c 2,17,-1
 80 441 l 1,18,-1
 42 441 l 1,19,-1
 48 508 l 1,20,-1
 219 508 l 1,21,-1
 186 125 l 2,22,23
 182 73 182 73 226 67 c 1,12,-1
EndSplineSet
EndChar

StartChar: j
Encoding: 106 106 77
Width: 201
GlyphClass: 2
Flags: W
LayerCount: 2
Fore
SplineSet
229 669 m 256,0,1
 229 641 229 641 209 620.5 c 128,-1,2
 189 600 189 600 160 600 c 0,3,4
 132 600 132 600 112 620.5 c 128,-1,5
 92 641 92 641 92 669 c 256,6,7
 92 697 92 697 112 717 c 128,-1,8
 132 737 132 737 160 737 c 256,9,10
 188 737 188 737 208.5 717 c 128,-1,11
 229 697 229 697 229 669 c 256,0,1
217 508 m 1,12,-1
 166 -76 l 2,13,14
 161 -135 161 -135 105.5 -177 c 128,-1,15
 50 -219 50 -219 -23 -219 c 2,16,-1
 -90 -219 l 1,17,-1
 -84 -152 l 1,18,-1
 -17 -152 l 2,19,20
 25 -152 25 -152 30 -93 c 2,21,-1
 77 441 l 1,22,-1
 41 441 l 1,23,-1
 47 508 l 1,24,-1
 217 508 l 1,12,-1
EndSplineSet
EndChar

StartChar: k
Encoding: 107 107 78
Width: 472
GlyphClass: 2
Flags: W
LayerCount: 2
Fore
SplineSet
493 508 m 1,0,-1
 310 327 l 1,1,2
 367 314 367 314 398 278 c 0,3,4
 433 238 433 238 429 179 c 2,5,-1
 424 110 l 2,6,7
 421 69 421 69 458 67 c 1,8,-1
 453 0 l 1,9,-1
 407 0 l 2,10,11
 355 0 355 0 324 20 c 0,12,13
 286 45 286 45 289 93 c 2,14,-1
 295 179 l 2,15,16
 297 212 297 212 285 237 c 0,17,18
 270 266 270 266 238 266 c 0,19,20
 217 266 217 266 193 250 c 1,21,-1
 171 0 l 1,22,-1
 38 0 l 1,23,-1
 96 670 l 1,24,-1
 58 670 l 1,25,-1
 64 737 l 1,26,-1
 236 737 l 1,27,-1
 202 351 l 1,28,-1
 360 508 l 1,29,-1
 493 508 l 1,0,-1
EndSplineSet
EndChar

StartChar: l
Encoding: 108 108 79
Width: 242
GlyphClass: 2
Flags: W
LayerCount: 2
Fore
SplineSet
239 737 m 1,0,-1
 186 125 l 2,1,2
 181 71 181 71 227 67 c 1,3,-1
 222 0 l 1,4,-1
 200 0 l 2,5,6
 127 0 127 0 87 33.5 c 128,-1,7
 47 67 47 67 52 125 c 2,8,-1
 100 670 l 1,9,-1
 64 670 l 1,10,-1
 70 737 l 1,11,-1
 239 737 l 1,0,-1
EndSplineSet
EndChar

StartChar: m
Encoding: 109 109 80
Width: 727
GlyphClass: 2
Flags: W
LayerCount: 2
Fore
SplineSet
711 67 m 1,0,-1
 705 0 l 1,1,-1
 643 0 l 2,2,3
 594 0 594 0 563 24 c 0,4,5
 529 52 529 52 533 102 c 2,6,-1
 557 379 l 2,7,8
 559 402 559 402 546 421.5 c 128,-1,9
 533 441 533 441 508 441 c 2,10,-1
 454 441 l 1,11,-1
 415 0 l 1,12,-1
 281 0 l 1,13,-1
 314 379 l 2,14,15
 316 402 316 402 303 421.5 c 128,-1,16
 290 441 290 441 265 441 c 2,17,-1
 211 441 l 1,18,-1
 172 0 l 1,19,-1
 39 0 l 1,20,-1
 77 441 l 1,21,-1
 42 441 l 1,22,-1
 48 508 l 1,23,-1
 514 508 l 2,24,25
 598 508 598 508 644 474 c 0,26,27
 696 437 696 437 690 363 c 2,28,-1
 668 110 l 2,29,30
 665 80 665 80 676 72 c 0,31,32
 682 67 682 67 711 67 c 1,0,-1
EndSplineSet
EndChar

StartChar: n
Encoding: 110 110 81
Width: 480
GlyphClass: 2
Flags: W
LayerCount: 2
Fore
SplineSet
465 67 m 1,0,-1
 459 0 l 1,1,-1
 402 0 l 2,2,3
 352 0 352 0 322 24 c 0,4,5
 288 52 288 52 292 102 c 2,6,-1
 316 379 l 2,7,8
 318 402 318 402 306 420 c 0,9,10
 291 441 291 441 267 441 c 2,11,-1
 213 441 l 1,12,-1
 174 0 l 1,13,-1
 40 0 l 1,14,-1
 79 441 l 1,15,-1
 41 441 l 1,16,-1
 47 508 l 1,17,-1
 273 508 l 2,18,19
 356 508 356 508 402 475 c 0,20,21
 454 437 454 437 448 363 c 2,22,-1
 427 110 l 2,23,24
 425 81 425 81 434 73 c 0,25,26
 440 67 440 67 465 67 c 1,0,-1
EndSplineSet
EndChar

StartChar: o
Encoding: 111 111 82
Width: 406
GlyphClass: 2
Flags: W
LayerCount: 2
Fore
SplineSet
413 366 m 2,0,-1
 393 142 l 2,1,2
 388 83 388 83 333 41.5 c 128,-1,3
 278 0 278 0 205 0 c 2,4,-1
 185 0 l 2,5,6
 116 0 116 0 68 36 c 0,7,8
 15 76 15 76 21 142 c 2,9,-1
 41 366 l 2,10,11
 47 432 47 432 107 472 c 0,12,13
 160 508 160 508 229 508 c 2,14,-1
 250 508 l 2,15,16
 318 508 318 508 366 472 c 0,17,18
 419 431 419 431 413 366 c 2,0,-1
279 366 m 2,19,20
 282 402 282 402 268.5 421 c 128,-1,21
 255 440 255 440 233 440 c 0,22,23
 212 440 212 440 195 422 c 0,24,25
 177 401 177 401 174 366 c 2,26,-1
 155 142 l 2,27,28
 152 108 152 108 166 88 c 128,-1,29
 180 68 180 68 201 67 c 256,30,31
 222 66 222 66 239.5 85.5 c 128,-1,32
 257 105 257 105 260 142 c 2,33,-1
 279 366 l 2,19,20
EndSplineSet
EndChar

StartChar: p
Encoding: 112 112 83
Width: 440
GlyphClass: 2
Flags: W
LayerCount: 2
Fore
SplineSet
445 366 m 2,0,-1
 425 142 l 2,1,2
 419 76 419 76 359 36 c 0,3,4
 305 0 305 0 237 0 c 2,5,-1
 216 0 l 2,6,7
 191 0 191 0 174 4 c 1,8,-1
 155 -219 l 1,9,-1
 21 -219 l 1,10,-1
 79 441 l 1,11,-1
 41 441 l 1,12,-1
 46 508 l 1,13,-1
 281 508 l 2,14,15
 350 508 350 508 398 472 c 0,16,17
 451 432 451 432 445 366 c 2,0,-1
312 383 m 2,18,19
 317 441 317 441 267 441 c 2,20,-1
 213 441 l 1,21,-1
 186 142 l 2,22,23
 183 107 183 107 197 87 c 128,-1,24
 211 67 211 67 232 67 c 0,25,26
 254 67 254 67 271 86.5 c 128,-1,27
 288 106 288 106 291 142 c 2,28,-1
 312 383 l 2,18,19
EndSplineSet
EndChar

StartChar: q
Encoding: 113 113 84
Width: 441
GlyphClass: 2
Flags: W
LayerCount: 2
Fore
SplineSet
465 508 m 1,0,-1
 459 441 l 1,1,-1
 421 441 l 1,2,-1
 363 -219 l 1,3,-1
 230 -219 l 1,4,-1
 249 4 l 1,5,6
 232 0 232 0 207 0 c 2,7,-1
 186 0 l 2,8,9
 117 0 117 0 70 36 c 0,10,11
 17 76 17 76 23 142 c 2,12,-1
 42 366 l 2,13,14
 48 431 48 431 108 472 c 0,15,16
 162 508 162 508 230 508 c 2,17,-1
 465 508 l 1,0,-1
287 441 m 1,18,-1
 225 441 l 2,19,20
 182 441 182 441 178 391 c 2,21,-1
 156 142 l 2,22,23
 153 107 153 107 167 87 c 128,-1,24
 181 67 181 67 202 67 c 256,25,26
 223 67 223 67 240.5 87 c 128,-1,27
 258 107 258 107 261 142 c 2,28,-1
 287 441 l 1,18,-1
EndSplineSet
EndChar

StartChar: r
Encoding: 114 114 85
Width: 378
GlyphClass: 2
Flags: W
LayerCount: 2
Fore
SplineSet
395 508 m 1,0,-1
 382 369 l 1,1,-1
 309 369 l 1,2,-1
 314 435 l 1,3,4
 268 418 268 418 236 373 c 128,-1,5
 204 328 204 328 200 278 c 2,6,-1
 176 0 l 1,7,-1
 42 0 l 1,8,-1
 81 441 l 1,9,-1
 43 441 l 1,10,-1
 49 508 l 1,11,-1
 220 508 l 1,12,-1
 217 465 l 1,13,14
 269 508 269 508 350 508 c 2,15,-1
 395 508 l 1,0,-1
EndSplineSet
EndChar

StartChar: s
Encoding: 115 115 86
Width: 354
GlyphClass: 2
Flags: W
LayerCount: 2
Fore
SplineSet
340 143 m 0,0,1
 340 202 340 202 295 258 c 2,2,-1
 197 379 l 2,3,4
 184 395 184 395 184 411 c 0,5,6
 184 441 184 441 234 441 c 2,7,-1
 313 441 l 1,8,-1
 319 508 l 1,9,-1
 209 508 l 2,10,11
 141 508 141 508 93 475 c 0,12,13
 38 438 38 438 38 372 c 0,14,15
 38 320 38 320 77 275 c 2,16,-1
 157 184 l 2,17,18
 179 159 179 159 179 126 c 0,19,20
 179 67 179 67 117 67 c 2,21,-1
 10 67 l 1,22,-1
 4 0 l 1,23,-1
 163 0 l 2,24,25
 235 0 235 0 284 35 c 0,26,27
 340 75 340 75 340 143 c 0,0,1
EndSplineSet
EndChar

StartChar: t
Encoding: 116 116 87
Width: 268
GlyphClass: 2
Flags: W
LayerCount: 2
Fore
SplineSet
291 508 m 1,0,-1
 285 441 l 1,1,-1
 228 441 l 1,2,-1
 200 124 l 2,3,4
 195 73 195 73 241 68 c 1,5,-1
 235 0 l 1,6,-1
 188 0 l 2,7,8
 130 0 130 0 97 31 c 0,9,10
 61 64 61 64 66 124 c 2,11,-1
 94 441 l 1,12,-1
 41 441 l 1,13,-1
 47 508 l 1,14,-1
 100 508 l 1,15,-1
 110 626 l 1,16,-1
 244 626 l 1,17,-1
 233 508 l 1,18,-1
 291 508 l 1,0,-1
EndSplineSet
EndChar

StartChar: u
Encoding: 117 117 88
Width: 466
GlyphClass: 2
Flags: W
LayerCount: 2
Fore
SplineSet
451 67 m 1,0,-1
 445 0 l 1,1,-1
 206 0 l 2,2,3
 131 0 131 0 88 38 c 0,4,5
 41 79 41 79 48 154 c 2,6,-1
 73 441 l 1,7,-1
 38 441 l 1,8,-1
 44 508 l 1,9,-1
 212 508 l 1,10,-1
 181 137 l 2,11,12
 179 109 179 109 191.5 88 c 128,-1,13
 204 67 204 67 229 67 c 2,14,-1
 277 67 l 1,15,-1
 316 508 l 1,16,-1
 450 508 l 1,17,-1
 412 67 l 1,18,-1
 451 67 l 1,0,-1
EndSplineSet
EndChar

StartChar: v
Encoding: 118 118 89
Width: 439
GlyphClass: 2
Flags: W
LayerCount: 2
Fore
SplineSet
454 508 m 1,0,-1
 431 242 l 2,1,2
 422 143 422 143 346.5 71.5 c 128,-1,3
 271 0 271 0 172 -1 c 0,4,5
 127 -1 127 -1 38 -1 c 1,6,-1
 76 441 l 1,7,-1
 41 441 l 1,8,-1
 47 508 l 1,9,-1
 217 508 l 1,10,-1
 178 66 l 1,11,12
 220 66 220 66 253 95.5 c 128,-1,13
 286 125 286 125 290 166 c 2,14,-1
 320 508 l 1,15,-1
 454 508 l 1,0,-1
EndSplineSet
EndChar

StartChar: w
Encoding: 119 119 90
Width: 752
GlyphClass: 2
Flags: W
LayerCount: 2
Fore
SplineSet
721 504 m 1,0,-1
 681 67 l 1,1,-1
 734 67 l 1,2,-1
 729 0 l 1,3,-1
 231 0 l 2,4,5
 154 0 154 0 102 39 c 0,6,7
 46 82 46 82 53 158 c 2,8,-1
 79 437 l 1,9,-1
 41 437 l 1,10,-1
 47 504 l 1,11,-1
 219 504 l 1,12,-1
 186 149 l 2,13,14
 178.842253521 72 178.842253521 72 238 72 c 2,15,-1
 296 72 l 1,16,-1
 336 504 l 1,17,-1
 470 504 l 1,18,-1
 437 149 l 2,19,20
 429.842253521 72 429.842253521 72 489 72 c 2,21,-1
 547 72 l 1,22,-1
 587 504 l 1,23,-1
 721 504 l 1,0,-1
EndSplineSet
EndChar

StartChar: x
Encoding: 120 120 91
Width: 465
GlyphClass: 2
Flags: W
LayerCount: 2
Fore
SplineSet
481 508 m 1,0,-1
 475 441 l 1,1,-1
 449 441 l 1,2,-1
 444 386 l 2,3,4
 439 332 439 332 395 285 c 0,5,6
 383 272 383 272 366 260 c 1,7,8
 379 251 379 251 391 235 c 0,9,10
 427 188 427 188 422 134 c 2,11,-1
 416 67 l 1,12,-1
 450 67 l 1,13,-1
 444 0 l 1,14,-1
 276 0 l 1,15,-1
 288 134 l 2,16,17
 292 177 292 177 278.5 201 c 128,-1,18
 265 225 265 225 243 225 c 0,19,20
 222 225 222 225 204.5 201 c 128,-1,21
 187 177 187 177 183 134 c 2,22,-1
 172 0 l 1,23,-1
 9 0 l 1,24,-1
 14 67 l 1,25,-1
 44 67 l 1,26,-1
 50 134 l 2,27,28
 55 190 55 190 98 235 c 0,29,30
 114 251 114 251 127 260 c 1,31,32
 109 276 109 276 102 285 c 0,33,34
 68 329 68 329 72 386 c 2,35,-1
 76 441 l 1,36,-1
 45 441 l 1,37,-1
 51 508 l 1,38,-1
 216 508 l 1,39,-1
 205 386 l 2,40,41
 201 344 201 344 214.5 320 c 128,-1,42
 228 296 228 296 249 296 c 0,43,44
 271 296 271 296 288.5 320 c 128,-1,45
 306 344 306 344 310 386 c 2,46,-1
 321 508 l 1,47,-1
 481 508 l 1,0,-1
EndSplineSet
EndChar

StartChar: y
Encoding: 121 121 92
Width: 435
GlyphClass: 2
Flags: W
LayerCount: 2
Fore
SplineSet
451 508 m 1,0,-1
 400 -76 l 2,1,2
 395 -135 395 -135 339.5 -177 c 128,-1,3
 284 -219 284 -219 211 -219 c 2,4,-1
 76 -219 l 1,5,-1
 82 -152 l 1,6,-1
 209 -152 l 2,7,8
 259 -152 259 -152 264 -93 c 2,9,-1
 272 0 l 1,10,-1
 228 0 l 2,11,12
 150 0 150 0 101 38 c 0,13,14
 47 80 47 80 53 154 c 2,15,-1
 78 441 l 1,16,-1
 42 441 l 1,17,-1
 48 508 l 1,18,-1
 218 508 l 1,19,-1
 185 129 l 2,20,21
 180 67 180 67 234 67 c 2,22,-1
 278 67 l 1,23,-1
 317 508 l 1,24,-1
 451 508 l 1,0,-1
EndSplineSet
EndChar

StartChar: z
Encoding: 122 122 93
Width: 444
GlyphClass: 2
Flags: W
LayerCount: 2
Fore
SplineSet
482 508 m 1,0,-1
 199 67 l 1,1,-1
 428 67 l 1,2,-1
 422 0 l 1,3,-1
 -9 0 l 1,4,-1
 274 441 l 1,5,-1
 47 441 l 1,6,-1
 53 508 l 1,7,-1
 482 508 l 1,0,-1
EndSplineSet
EndChar

StartChar: circumflex
Encoding: 710 710 104
Width: 268
GlyphClass: 2
Flags: W
LayerCount: 2
Fore
SplineSet
303 577 m 1,0,-1
 264 523 l 1,1,-1
 172 590 l 1,2,-1
 79 523 l 1,3,-1
 40 577 l 1,4,-1
 172 673 l 1,5,-1
 303 577 l 1,0,-1
EndSplineSet
EndChar

StartChar: tilde
Encoding: 732 732 116
Width: 311
GlyphClass: 2
Flags: W
LayerCount: 2
Fore
SplineSet
332 598 m 1,0,1
 303 535 303 535 232 535 c 0,2,3
 208 535 208 535 187 545 c 2,4,-1
 166 555 l 2,5,6
 158 559 158 559 149 559 c 0,7,8
 121 559 121 559 109 534 c 1,9,-1
 49 562 l 1,10,11
 78 624 78 624 148 624 c 0,12,13
 172 624 172 624 194 615 c 2,14,-1
 215 606 l 2,15,16
 224 602 224 602 233 602 c 0,17,18
 260 602 260 602 271 626 c 1,19,-1
 332 598 l 1,0,1
EndSplineSet
EndChar

StartChar: acute
Encoding: 180 180 142
Width: 215
GlyphClass: 2
Flags: W
LayerCount: 2
Fore
SplineSet
252 618 m 1,0,-1
 71 534 l 1,1,-1
 42 594 l 1,2,-1
 224 679 l 1,3,-1
 252 618 l 1,0,-1
EndSplineSet
EndChar

StartChar: questiondown
Encoding: 191 191 153
Width: 368
GlyphClass: 2
Flags: W
LayerCount: 2
Fore
SplineSet
4 -28 m 0,0,1
 4 70 4 70 110 146 c 0,2,3
 140 163 140 163 205 203 c 0,4,5
 245 229 245 229 253 237 c 0,6,7
 274 259 274 259 277 293 c 2,8,-1
 285 378 l 1,9,-1
 357 378 l 1,10,-1
 345 250 l 2,11,12
 340 198 340 198 318 164 c 0,13,14
 300 136 300 136 258.5 106.5 c 128,-1,15
 217 77 217 77 200 56 c 0,16,17
 171 20 171 20 167 -32 c 0,18,19
 164 -72 164 -72 188 -100 c 128,-1,20
 212 -128 212 -128 252 -128 c 2,21,-1
 349 -128 l 1,22,-1
 343 -199 l 1,23,-1
 228 -199 l 2,24,25
 140 -199 140 -199 77 -158 c 0,26,27
 4 -110 4 -110 4 -28 c 0,0,1
256 473 m 256,28,29
 256 500 256 500 275 519 c 128,-1,30
 294 538 294 538 321 538 c 256,31,32
 348 538 348 538 367 519 c 128,-1,33
 386 500 386 500 386 473 c 256,34,35
 386 446 386 446 367 427 c 128,-1,36
 348 408 348 408 321 408 c 256,37,38
 294 408 294 408 275 427 c 128,-1,39
 256 446 256 446 256 473 c 256,28,29
EndSplineSet
EndChar

StartChar: dotlessi
Encoding: 305 305 218
Width: 241
GlyphClass: 2
Flags: W
LayerCount: 2
Fore
SplineSet
226 67 m 1,0,-1
 220 0 l 1,1,-1
 200 0 l 2,2,3
 127 0 127 0 87 33.5 c 128,-1,4
 47 67 47 67 52 125 c 2,5,-1
 80 441 l 1,6,-1
 42 441 l 1,7,-1
 48 508 l 1,8,-1
 219 508 l 1,9,-1
 186 125 l 2,10,11
 182 73 182 73 226 67 c 1,0,-1
EndSplineSet
EndChar

